<?xml version="1.0" encoding="UTF-8" standalone="no"?>
<svg
   xmlns:dc="http://purl.org/dc/elements/1.1/"
   xmlns:cc="http://creativecommons.org/ns#"
   xmlns:rdf="http://www.w3.org/1999/02/22-rdf-syntax-ns#"
   xmlns:svg="http://www.w3.org/2000/svg"
   xmlns="http://www.w3.org/2000/svg"
   xmlns:sodipodi="http://sodipodi.sourceforge.net/DTD/sodipodi-0.dtd"
   xmlns:inkscape="http://www.inkscape.org/namespaces/inkscape"
   viewBox="0 0 151.60811 26.457997"
   height="100"
   width="573.00964"
   version="1.1"
   id="svg34"
   sodipodi:docname="logo.svg"
   inkscape:version="0.92.4 (5da689c313, 2019-01-14)">
  <metadata
     id="metadata40">
    <rdf:RDF>
      <cc:Work
         rdf:about="">
        <dc:format>image/svg+xml</dc:format>
        <dc:type
           rdf:resource="http://purl.org/dc/dcmitype/StillImage" />
        <dc:title />
      </cc:Work>
    </rdf:RDF>
  </metadata>
  <defs
     id="defs38" />
  <sodipodi:namedview
     pagecolor="#ffffff"
     bordercolor="#666666"
     borderopacity="1"
     objecttolerance="10"
     gridtolerance="10"
     guidetolerance="10"
     inkscape:pageopacity="0"
     inkscape:pageshadow="2"
     inkscape:window-width="1920"
     inkscape:window-height="1017"
     id="namedview36"
     showgrid="false"
     fit-margin-top="0"
     fit-margin-left="0"
     fit-margin-right="0"
     fit-margin-bottom="0"
     inkscape:zoom="1.4142136"
     inkscape:cx="286.74944"
     inkscape:cy="-1.5948011"
     inkscape:window-x="-8"
     inkscape:window-y="-8"
     inkscape:window-maximized="1"
     inkscape:current-layer="svg34" />
  <style
     type="text/css"
     id="style2">
			.st0{fill:#000000;}
			.st1{fill:#ff0000;}
	</style>
  <path
     class="st1"
     d="M 15.500548,-1.7437687e-4 C 19.138577,0.06682616 22.742606,1.5018376 25.402627,4.2688598 l 0.06,0.062 c 5.106041,5.382043 4.720037,13.7031102 -0.869007,18.6281492 -2.588021,2.282019 -5.842047,3.436028 -9.104073,3.491028 v -7.034056 a 7.0600565,7.0600565 0 0 0 4.455036,-1.764014 c 2.811022,-2.49402 3.004024,-6.708054 0.435003,-9.4340761 l -0.028,-0.03 A 7.0440564,7.0440564 0 0 0 15.489548,6.0298739 V -1.7437687e-4 h 0.01 z"
     id="path4"
     inkscape:connector-curvature="0"
     style="fill:#ff0000;stroke-width:1" />
  <path
     class="st1"
     d="m 11.894519,12.494926 c 0.056,-0.297003 0.869007,-1.415012 0.828007,-2.324019 -0.008,-0.1850015 1.013008,0.381003 0.596005,1.684014 -0.130001,0.408003 0.160001,-0.029 0.415003,-0.245002 0.740006,-0.628005 0.423003,-2.3580194 0.374003,-3.2230263 -0.037,-0.6600053 1.932015,1.0350083 2.398019,3.9350313 0.035,0.218002 0.373003,-1.022008 0.500004,-1.200009 0.383003,-0.537005 0.750006,4.330034 -0.309002,5.370043 -1.22001,1.200009 -3.285027,1.27701 -4.611037,0.173001 C 10.76551,15.56595 10.68751,13.695935 11.894519,12.494926"
     id="path6"
     inkscape:connector-curvature="0"
     style="fill:#ff0000;stroke-width:1"
     sodipodi:nodetypes="cccccccccc" />
  <path
     class="st0"
     d="M 13.552532,-1.7437687e-4 C 9.9145032,0.06582615 6.3104744,1.5018376 3.6504531,4.2688598 l -0.06,0.062 C -1.5165878,9.7129028 -1.1295847,18.03397 4.45846,22.959009 c 2.5900207,2.282019 5.843046,3.436028 9.105073,3.491028 V 19.415981 A 7.0600565,7.0600565 0 0 1 9.1084968,17.651967 C 6.2974743,15.157947 6.1034728,10.943913 8.6724933,8.2178914 l 0.029,-0.03 C 10.009504,6.8178802 11.773518,6.0928744 13.563533,6.0298739 V -1.7437687e-4 h -0.01 z"
     id="path8"
     inkscape:connector-curvature="0"
     style="fill:#000000;stroke-width:1" />
  <path
     class="st1"
     d="m 23.21061,24.116019 c 3.370027,0.005 3.81303,0.468003 4.676037,1.059008 0.862007,0.590005 1.120009,1.28301 1.120009,1.28301 l -13.517108,-0.008 c 0,0 4.353035,-2.340018 7.722062,-2.334018 z"
     id="path10"
     inkscape:connector-curvature="0"
     style="fill:#ff0000;stroke-width:1" />
  <path
     style="fill:#000000;stroke-width:0.50018871"
     inkscape:connector-curvature="0"
     class="st0"
     d="m 54.039495,16.813287 h -3.374239 c -1.258231,1.320032 -2.348367,1.824313 -3.836492,1.824313 -2.851417,0 -5.19979,-2.390394 -5.19979,-5.282597 0,-2.914452 2.180277,-5.220799 5.13675,-5.220799 1.802066,0 3.018276,0.5870926 4.066391,1.950384 h 3.20738 C 52.677439,7.0860892 49.889062,5.3680708 46.70269,5.3680708 c -4.381563,0 -7.965918,3.5843549 -7.965918,7.9659202 0,4.464375 3.626376,8.070978 8.155027,8.070978 3.164116,0 5.932722,-1.761278 7.147696,-4.591682 z"
     id="path12" />
  <path
     style="fill:#000000;stroke-width:0.50018871"
     inkscape:connector-curvature="0"
     class="st0"
     d="m 67.419029,15.409209 c 0,-3.459521 -2.703099,-6.1638549 -6.204642,-6.1638549 -3.374239,0 -6.141608,2.7463579 -6.141608,6.0798079 0,3.353226 2.767369,6.078571 6.163851,6.078571 3.374239,0 6.183635,-2.725345 6.183635,-5.994524 z m -2.80816,-0.08405 c 0,1.949147 -1.509138,3.522555 -3.353225,3.522555 -1.88735,0 -3.375475,-1.573408 -3.375475,-3.564579 0,-1.90836 1.530152,-3.480532 3.354461,-3.480532 1.865101,0 3.374239,1.59442 3.374239,3.522556 z"
     id="path14" />
  <path
     style="fill:#000000;stroke-width:0.50018871"
     inkscape:connector-curvature="0"
     class="st0"
     d="m 79.319087,21.131817 v -6.22689 c 0,-2.076454 -0.210116,-3.082545 -0.837998,-3.983578 -0.753951,-1.0901383 -2.013419,-1.6772309 -3.626382,-1.6772309 -1.321266,0 -2.243312,0.397987 -3.270414,1.3843029 V 9.5160346 h -2.57826 V 21.13058 h 2.78714 v -5.471703 c 0,-1.55116 0.105062,-2.2223 0.461023,-2.78838 0.441247,-0.692152 1.17419,-1.069127 2.055446,-1.069127 1.383064,0 2.221062,0.545069 2.221062,3.648626 v 5.680584 z"
     id="path16" />
  <path
     style="fill:#000000;stroke-width:0.50018871"
     inkscape:connector-curvature="0"
     class="st0"
     d="m 89.246518,17.442403 c 0,-1.719254 -0.795978,-2.641299 -3.227157,-3.396485 C 84.110998,13.437813 84.0492,13.39579 84.0492,12.788922 c 0,-0.566082 0.461023,-0.986316 1.069128,-0.986316 0.585856,0 0.964068,0.315176 1.0889,0.92328 h 2.725349 C 88.828752,10.54561 87.088484,9.2453541 85.118328,9.2453541 c -2.159264,0 -3.857511,1.5511609 -3.857511,3.5435679 0,1.697006 0.922046,2.66231 3.228393,3.437272 1.866336,0.629116 1.970161,0.818222 1.970161,1.488126 0,0.650127 -0.545071,1.132161 -1.258231,1.132161 -0.816986,0 -1.278009,-0.420234 -1.551166,-1.404078 H 80.84182 c 0.292928,2.704334 1.949148,3.96133 4.255495,3.96133 2.326123,0 4.150433,-1.73903 4.150433,-3.96133 z"
     id="path18" />
  <path
     style="fill:#000000;stroke-width:0.50018871"
     inkscape:connector-curvature="0"
     class="st0"
     d="M 101.12185,21.131817 V 9.5185066 h -2.78838 v 5.4704674 c 0,1.55116 -0.124832,2.264323 -0.44001,2.788381 -0.420232,0.671139 -1.174183,1.069126 -2.117237,1.069126 -1.341043,0 -2.200055,-0.56608 -2.200055,-3.64739 V 9.5185066 H 90.787785 V 15.74416 c 0,4.087401 1.718018,5.660809 4.422354,5.660809 1.405313,0 2.285339,-0.357199 3.333454,-1.384302 v 1.11115 z"
     id="path20" />
  <path
     style="fill:#000000;stroke-width:0.50018871"
     inkscape:connector-curvature="0"
     class="st0"
     d="M 106.14489,21.131817 V 5.6399874 h -2.78837 V 21.131817 Z"
     id="path22" />
  <path
     style="fill:#000000;stroke-width:0.50018871"
     inkscape:connector-curvature="0"
     class="st0"
     d="M 113.27652,12.054747 V 9.5185066 h -1.67599 V 5.6399874 h -2.78838 v 3.8785192 h -1.3633 v 2.5362404 h 1.3633 v 9.07707 h 2.78838 v -9.07707 z"
     id="path24" />
  <path
     style="fill:#ff0000;fill-opacity:1;stroke-width:0.50018871"
     inkscape:connector-curvature="0"
     class="st0"
     d="m 125.47322,21.131817 -4.19246,-5.722608 c 2.78714,-0.692152 4.04538,-2.390394 4.04538,-4.800564 0,-1.5721723 -0.56608,-2.9144515 -1.63521,-3.8154841 -1.00609,-0.8602452 -2.11724,-1.1531735 -4.23448,-1.1531735 h -4.46438 V 21.131817 h 2.87119 v -5.932726 l 4.06639,5.932726 z M 122.4327,10.692692 c 0,1.633971 -0.94306,2.348371 -3.16413,2.348371 h -1.40531 V 8.3863449 h 1.27925 c 2.72535,0 3.29019,0.9220444 3.29019,2.3063471 z"
     id="path26" />
  <path
     style="fill:#ff0000;fill-opacity:1;stroke-width:0.50018871"
     inkscape:connector-curvature="0"
     class="st0"
     d="M 129.6459,21.131817 V 9.5185066 h -2.78838 V 21.131817 Z m 0.021,-13.2905413 V 5.0528948 h -2.78838 v 2.7883809 z"
     id="path28" />
  <path
     style="fill:#ff0000;fill-opacity:1;stroke-width:0.50018871"
     inkscape:connector-curvature="0"
     class="st0"
     d="m 139.56591,17.442403 c 0,-1.719254 -0.79597,-2.641299 -3.22715,-3.396485 -1.90836,-0.608105 -1.9714,-0.650128 -1.9714,-1.256996 0,-0.566082 0.46103,-0.986316 1.06913,-0.986316 0.58709,0 0.96407,0.315176 1.09014,0.92328 h 2.72535 c -0.10506,-2.180276 -1.8441,-3.4805319 -3.81549,-3.4805319 -2.15926,0 -3.85627,1.5511609 -3.85627,3.5435679 0,1.697006 0.92204,2.66231 3.22715,3.437272 1.86634,0.629116 1.9714,0.818222 1.9714,1.488126 0,0.650127 -0.54507,1.132161 -1.25823,1.132161 -0.81699,0 -1.27801,-0.420234 -1.55117,-1.404078 h -2.80939 c 0.29417,2.704334 1.95039,3.96133 4.2555,3.96133 2.32736,0 4.15043,-1.73903 4.15043,-3.96133 z"
     id="path30" />
  <path
     style="fill:#ff0000;fill-opacity:1;stroke-width:0.50018871"
     inkscape:connector-curvature="0"
     class="st0"
     d="m 151.60811,21.131817 -4.82034,-5.932726 4.15044,-5.6805844 h -3.33345 l -3.71043,5.4704674 V 5.6399874 h -2.78838 V 21.131817 h 2.78838 v -5.42968 l 3.96257,5.42968 z"
     id="path32" />
</svg>
