<svg width="212" height="282" viewBox="0 0 212 282" fill="none" xmlns="http://www.w3.org/2000/svg">
<path d="M196.091 26.39L195.921 26.33H195.741L117.001 2.47003C113.454 1.28662 109.74 0.685505 106.001 0.690028C102.262 0.685505 98.5474 1.28662 95.0009 2.47003L16.2609 26.28H16.0909L15.9109 26.34C11.4196 27.8731 7.52208 30.7758 4.76675 34.6398C2.01141 38.5037 0.536958 43.1343 0.550879 47.88V181.64C0.550879 196.95 6.34088 211.83 17.7509 225.86C26.3309 236.42 38.1509 246.53 52.8809 255.92C68.5354 265.779 85.2046 273.925 102.601 280.22L106.051 281.4L109.501 280.19C126.871 273.76 143.513 265.515 159.151 255.59C173.861 246.14 185.671 236.03 194.251 225.52C205.661 211.52 211.451 196.77 211.451 181.64V47.88C211.454 43.1429 209.975 38.5234 207.22 34.6695C204.466 30.8155 200.574 27.9204 196.091 26.39Z" fill="#002050"/>
<path d="M11.4811 88.9H11.1211V181.59C11.1211 237.79 106.011 270.17 106.011 270.17C106.011 270.17 200.881 236.96 200.881 181.59V89H200.521C134.271 80.82 77.7311 80.82 11.4811 88.9Z" fill="#0064B5"/>
<path d="M64.19 170L47.06 171.09L45.25 142.52L61.72 141.47L62.06 146.71L52.06 147.35L52.46 153.7L61.8 153.11L62.13 158.33L52.79 158.92L53.21 165.46L63.9 164.78L64.19 170ZM95.17 168.91L87.53 169.14L82.33 159.97C82.0378 159.366 81.8228 158.728 81.69 158.07H81.61C81.4584 158.75 81.2579 159.419 81.01 160.07L76.34 169.45L68.65 169.68L77.35 155.1L68.58 141.04L76.43 140.81L80.77 149.27C81.148 150.039 81.4591 150.838 81.7 151.66H81.78C81.92 151.09 82.2 150.25 82.6 149.14L86.9 140.5L94.08 140.29L85.92 154.73L95.17 168.91ZM126 169.08L119 169.03L117 162.64L106.82 162.57L104.76 168.92H97.76L108.4 140.37L116.04 140.43L126 169.08ZM115.54 157.68L112.54 148.04C112.299 147.198 112.145 146.333 112.08 145.46H111.92C111.849 146.307 111.677 147.143 111.41 147.95L108.22 157.63L115.54 157.68ZM164.25 170.9L157.89 170.57L158.78 153.46C158.88 151.62 159.06 149.58 159.34 147.35H159.18C158.892 148.619 158.525 149.868 158.08 151.09L150.37 170.17L145.11 169.9L139.29 150.31C138.992 148.989 138.762 147.654 138.6 146.31H138.42C138.42 149.13 138.42 151.61 138.3 153.73L137.47 169.54L131.67 169.24L133.16 140.65L142.59 141.15L147.59 158.39C147.977 159.744 148.244 161.129 148.39 162.53H148.51C148.95 160.97 149.41 159.61 149.86 158.46L156.59 141.86L165.78 142.34L164.25 170.9ZM72.16 60.77H68.23V50.2C68.23 49.05 68.23 47.79 68.38 46.41H68.28C68.1467 47.2018 67.9596 47.9837 67.72 48.75L63.58 60.75H60.33L56.11 48.86C55.8823 48.0472 55.6987 47.2227 55.56 46.39H55.45C55.55 48.13 55.61 49.66 55.61 50.98V60.75H52V43.1H57.83L61.44 53.57C61.7249 54.3929 61.9358 55.2396 62.07 56.1H62.14C62.3334 55.2386 62.5704 54.3875 62.85 53.55L66.46 43.1H72.14L72.16 60.77ZM77.77 46.15C77.1781 46.1752 76.5999 45.9669 76.16 45.57C75.9578 45.3893 75.7969 45.1671 75.6882 44.9186C75.5795 44.6702 75.5255 44.4012 75.53 44.13C75.5222 43.8598 75.5747 43.5913 75.6837 43.344C75.7927 43.0966 75.9554 42.8766 76.16 42.7C76.6231 42.344 77.1909 42.151 77.775 42.151C78.3591 42.151 78.9269 42.344 79.39 42.7C79.5933 42.8771 79.7545 43.0975 79.8618 43.3449C79.9691 43.5923 80.0197 43.8605 80.01 44.13C80.0193 44.4039 79.9686 44.6764 79.8615 44.9286C79.7544 45.1808 79.5935 45.4065 79.39 45.59C78.9408 45.9758 78.3615 46.176 77.77 46.15ZM79.69 60.77H75.8V48.15H79.69V60.77ZM92.54 60.32C91.3557 60.8944 90.044 61.1561 88.73 61.08C87.8638 61.1191 86.9986 60.9834 86.186 60.681C85.3734 60.3787 84.63 59.9158 84 59.32C83.4017 58.7273 82.9328 58.0169 82.6229 57.2338C82.3131 56.4506 82.1691 55.6117 82.2 54.77C82.1492 53.837 82.2947 52.9036 82.6272 52.0303C82.9596 51.157 83.4716 50.3631 84.13 49.7C84.8247 49.0647 85.6384 48.5732 86.524 48.254C87.4096 47.9347 88.3497 47.7941 89.29 47.84C90.399 47.7649 91.5092 47.9677 92.52 48.43V51.74C91.7401 51.1421 90.7827 50.8218 89.8 50.83C89.3117 50.8051 88.8235 50.8811 88.3659 51.0531C87.9082 51.2252 87.4909 51.4896 87.14 51.83C86.799 52.1888 86.5344 52.6131 86.3625 53.0773C86.1906 53.5414 86.1149 54.0357 86.14 54.53C86.1113 55.0091 86.1798 55.4891 86.3413 55.9411C86.5029 56.393 86.7541 56.8077 87.08 57.16C87.4155 57.496 87.8173 57.7584 88.2597 57.9305C88.7022 58.1027 89.1757 58.1809 89.65 58.16C90.6685 58.1418 91.6594 57.8255 92.5 57.25L92.54 60.32ZM103.33 51.66C102.823 51.3999 102.26 51.2693 101.69 51.28C101.306 51.2613 100.924 51.3362 100.575 51.4982C100.227 51.6602 99.923 51.9045 99.69 52.21C99.1814 52.956 98.932 53.8484 98.98 54.75V60.75H95.08V48.15H99V50.49C99.1816 49.7485 99.6104 49.0909 100.216 48.6256C100.821 48.1602 101.567 47.9149 102.33 47.93C102.67 47.9105 103.011 47.9616 103.33 48.08V51.66ZM111.06 61.08C110.151 61.135 109.239 61.0067 108.38 60.7026C107.521 60.3986 106.732 59.925 106.06 59.31C105.447 58.6762 104.971 57.9229 104.661 57.0972C104.351 56.2714 104.215 55.3908 104.26 54.51C104.209 53.6076 104.349 52.7045 104.671 51.86C104.993 51.0155 105.49 50.2488 106.13 49.61C107.523 48.3781 109.343 47.7424 111.2 47.84C112.098 47.7894 112.998 47.92 113.845 48.2241C114.692 48.5282 115.469 48.9995 116.13 49.61C116.747 50.2194 117.232 50.9496 117.553 51.7549C117.875 52.5602 118.027 53.4232 118 54.29C118.051 55.2058 117.914 56.1224 117.595 56.9826C117.277 57.8428 116.785 58.6283 116.15 59.29C115.467 59.9169 114.663 60.3988 113.788 60.7065C112.914 61.0141 111.985 61.1412 111.06 61.08ZM111.15 50.83C110.745 50.808 110.34 50.8816 109.968 51.0449C109.596 51.2082 109.268 51.4566 109.01 51.77C108.457 52.5536 108.189 53.5029 108.25 54.46C108.25 56.89 109.25 58.1 111.18 58.1C113.11 58.1 113.98 56.85 113.98 54.36C113.98 51.87 113 50.83 111.15 50.83ZM119.65 60.44V57.29C120.252 57.6548 120.897 57.9437 121.57 58.15C122.153 58.3312 122.76 58.4255 123.37 58.43C123.93 58.4557 124.49 58.3602 125.01 58.15C125.184 58.0832 125.333 57.9653 125.439 57.8117C125.544 57.6581 125.6 57.4762 125.6 57.29C125.603 57.1732 125.58 57.0572 125.534 56.9501C125.487 56.843 125.418 56.7474 125.33 56.67C125.125 56.4851 124.888 56.3394 124.63 56.24C124.329 56.1039 124.018 55.9903 123.7 55.9C123.361 55.8077 123.027 55.6975 122.7 55.57C122.244 55.4023 121.803 55.1983 121.38 54.96C121.006 54.7646 120.668 54.5076 120.38 54.2C120.119 53.9092 119.918 53.5693 119.79 53.2C119.649 52.7677 119.581 52.3147 119.59 51.86C119.571 51.2223 119.73 50.5919 120.05 50.04C120.356 49.5325 120.777 49.1042 121.28 48.79C121.824 48.45 122.423 48.2065 123.05 48.07C123.726 47.9168 124.417 47.8396 125.11 47.84C126.262 47.846 127.407 48.0177 128.51 48.35V51.35C128.018 51.0581 127.485 50.8392 126.93 50.7C126.389 50.5545 125.831 50.4806 125.27 50.48C125.028 50.4825 124.788 50.5059 124.55 50.55C124.342 50.5909 124.141 50.6581 123.95 50.75C123.79 50.8229 123.652 50.9368 123.55 51.08C123.452 51.2133 123.399 51.3746 123.4 51.54C123.393 51.758 123.472 51.9699 123.62 52.13C123.784 52.3097 123.981 52.4557 124.2 52.56C124.454 52.6881 124.718 52.7952 124.99 52.88L125.86 53.17C126.342 53.3359 126.813 53.5329 127.27 53.76C127.662 53.9605 128.025 54.2127 128.35 54.51C128.646 54.7928 128.881 55.1331 129.04 55.51C129.21 55.9533 129.291 56.4255 129.28 56.9C129.3 57.5702 129.13 58.2324 128.79 58.81C128.466 59.3373 128.025 59.7823 127.5 60.11C126.925 60.4537 126.296 60.6971 125.64 60.83C124.921 60.9876 124.186 61.0648 123.45 61.06C122.157 61.0741 120.871 60.8643 119.65 60.44ZM137.6 61.08C136.69 61.1373 135.778 61.0101 134.919 60.7059C134.06 60.4017 133.271 59.9269 132.6 59.31C131.983 58.6784 131.504 57.9258 131.192 57.0996C130.881 56.2735 130.744 55.3917 130.79 54.51C130.739 53.6076 130.879 52.7045 131.201 51.86C131.523 51.0155 132.02 50.2488 132.66 49.61C134.053 48.3781 135.873 47.7424 137.73 47.84C138.629 47.7883 139.528 47.9183 140.375 48.2225C141.223 48.5266 142 48.9985 142.66 49.61C143.263 50.2262 143.732 50.9594 144.04 51.7644C144.348 52.5694 144.488 53.429 144.45 54.29C144.503 55.2051 144.367 56.1214 144.051 56.9817C143.734 57.842 143.244 58.6278 142.61 59.29C141.935 59.9051 141.144 60.38 140.284 60.6873C139.424 60.9946 138.512 61.1281 137.6 61.08ZM137.7 50.83C137.293 50.808 136.887 50.8816 136.513 51.0448C136.14 51.208 135.81 51.4564 135.55 51.77C134.997 52.5536 134.729 53.5029 134.79 54.46C134.79 56.89 135.79 58.1 137.72 58.1C139.65 58.1 140.52 56.85 140.52 54.36C140.52 51.87 139.58 50.83 137.7 50.83ZM154.87 45.07C154.414 44.8789 153.925 44.777 153.43 44.77C152.18 44.77 151.55 45.45 151.55 46.77V48.11H154.44V51H151.55V60.75H147.67V51H145.55V48.15H147.67V46.58C147.645 45.9355 147.756 45.293 147.998 44.6948C148.239 44.0967 148.605 43.5565 149.07 43.11C150.126 42.1887 151.5 41.7153 152.9 41.79C153.576 41.769 154.25 41.8534 154.9 42.04L154.87 45.07ZM164.42 60.63C163.599 60.9778 162.71 61.1318 161.82 61.08C159.08 61.08 157.7 59.66 157.7 56.8V51H155.7V48.15H157.7V45.43L161.59 44.32V48.15H164.42V51H161.59V56.11C161.59 57.42 162.11 58.11 163.15 58.11C163.597 58.1008 164.035 57.9769 164.42 57.75V60.63Z" fill="white"/>
</svg>
